<svg width="16" height="16" viewBox="0 0 16 16" fill="none" xmlns="http://www.w3.org/2000/svg">
<path d="M1.6875 3.38927H0.5625C0.413316 3.38927 0.270242 3.32978 0.164752 3.22388C0.0592632 3.11798 0 2.97435 0 2.82458C0 2.67482 0.0592632 2.53119 0.164752 2.42529C0.270242 2.31939 0.413316 2.25989 0.5625 2.25989H5.0625V0.564691C5.0625 0.414925 5.12176 0.271294 5.22725 0.165394C5.33274 0.0594941 5.47582 0 5.625 0H10.125C10.2742 0 10.4173 0.0594941 10.5227 0.165394C10.6282 0.271294 10.6875 0.414925 10.6875 0.564691V2.25989H15.1875C15.3367 2.25989 15.4798 2.31939 15.5852 2.42529C15.6907 2.53119 15.75 2.67482 15.75 2.82458C15.75 2.97435 15.6907 3.11798 15.5852 3.22388C15.4798 3.32978 15.3367 3.38927 15.1875 3.38927H14.0625V15.2478C14.0625 15.3975 14.0032 15.5412 13.8977 15.6471C13.7923 15.753 13.6492 15.8125 13.5 15.8125H2.25C2.10082 15.8125 1.95774 15.753 1.85225 15.6471C1.74676 15.5412 1.6875 15.3975 1.6875 15.2478V3.38927ZM9.5625 2.25989V1.13051H6.1875V2.25989H9.5625ZM2.8125 14.6831H12.9375V3.38927H2.8125V14.6831ZM6.1875 12.4243C6.03832 12.4243 5.89524 12.3648 5.78975 12.2589C5.68426 12.153 5.625 12.0094 5.625 11.8596V6.21273C5.625 6.06296 5.68426 5.91933 5.78975 5.81343C5.89524 5.70753 6.03832 5.64804 6.1875 5.64804C6.33668 5.64804 6.47976 5.70753 6.58525 5.81343C6.69074 5.91933 6.75 6.06296 6.75 6.21273V11.8596C6.75 12.0094 6.69074 12.153 6.58525 12.2589C6.47976 12.3648 6.33668 12.4243 6.1875 12.4243ZM9.5625 12.4243C9.41332 12.4243 9.27024 12.3648 9.16475 12.2589C9.05926 12.153 9 12.0094 9 11.8596V6.21273C9 6.06296 9.05926 5.91933 9.16475 5.81343C9.27024 5.70753 9.41332 5.64804 9.5625 5.64804C9.71168 5.64804 9.85476 5.70753 9.96025 5.81343C10.0657 5.91933 10.125 6.06296 10.125 6.21273V11.8596C10.125 12.0094 10.0657 12.153 9.96025 12.2589C9.85476 12.3648 9.71168 12.4243 9.5625 12.4243Z" fill="white"/>
</svg>
