<svg width="480" height="473" viewBox="0 0 480 473" fill="none" xmlns="http://www.w3.org/2000/svg">
<g clip-path="url(#clip0_133_1155)">
<path d="M-4.64916e-05 2.53617C1.42136 2.53617 2.57364 1.4007 2.57364 1.85966e-05C2.57364 -1.40066 1.42136 -2.53613 -4.64916e-05 -2.53613C-1.42145 -2.53613 -2.57373 -1.40066 -2.57373 1.85966e-05C-2.57373 1.4007 -1.42145 2.53617 -4.64916e-05 2.53617Z" fill="#483E3A"/>
<path d="M40 2.53617C41.4214 2.53617 42.5736 1.4007 42.5736 1.85966e-05C42.5736 -1.40066 41.4214 -2.53613 40 -2.53613C38.5785 -2.53613 37.4263 -1.40066 37.4263 1.85966e-05C37.4263 1.4007 38.5785 2.53617 40 2.53617Z" fill="#483E3A"/>
<path d="M80 2.53617C81.4214 2.53617 82.5736 1.4007 82.5736 1.85966e-05C82.5736 -1.40066 81.4214 -2.53613 80 -2.53613C78.5785 -2.53613 77.4263 -1.40066 77.4263 1.85966e-05C77.4263 1.4007 78.5785 2.53617 80 2.53617Z" fill="#483E3A"/>
<path d="M120 2.53617C121.421 2.53617 122.574 1.4007 122.574 1.85966e-05C122.574 -1.40066 121.421 -2.53613 120 -2.53613C118.579 -2.53613 117.426 -1.40066 117.426 1.85966e-05C117.426 1.4007 118.579 2.53617 120 2.53617Z" fill="#483E3A"/>
<path d="M160 2.53617C161.421 2.53617 162.574 1.4007 162.574 1.85966e-05C162.574 -1.40066 161.421 -2.53613 160 -2.53613C158.579 -2.53613 157.426 -1.40066 157.426 1.85966e-05C157.426 1.4007 158.579 2.53617 160 2.53617Z" fill="#483E3A"/>
<path d="M200 2.53617C201.421 2.53617 202.574 1.4007 202.574 1.85966e-05C202.574 -1.40066 201.421 -2.53613 200 -2.53613C198.579 -2.53613 197.426 -1.40066 197.426 1.85966e-05C197.426 1.4007 198.579 2.53617 200 2.53617Z" fill="#483E3A"/>
<path d="M240 2.53617C241.421 2.53617 242.574 1.4007 242.574 1.85966e-05C242.574 -1.40066 241.421 -2.53613 240 -2.53613C238.579 -2.53613 237.426 -1.40066 237.426 1.85966e-05C237.426 1.4007 238.579 2.53617 240 2.53617Z" fill="#483E3A"/>
<path d="M280 2.53617C281.421 2.53617 282.574 1.4007 282.574 1.85966e-05C282.574 -1.40066 281.421 -2.53613 280 -2.53613C278.579 -2.53613 277.426 -1.40066 277.426 1.85966e-05C277.426 1.4007 278.579 2.53617 280 2.53617Z" fill="#483E3A"/>
<path d="M320 2.53617C321.421 2.53617 322.574 1.4007 322.574 1.85966e-05C322.574 -1.40066 321.421 -2.53613 320 -2.53613C318.579 -2.53613 317.426 -1.40066 317.426 1.85966e-05C317.426 1.4007 318.579 2.53617 320 2.53617Z" fill="#483E3A"/>
<path d="M360 2.53617C361.421 2.53617 362.574 1.4007 362.574 1.85966e-05C362.574 -1.40066 361.421 -2.53613 360 -2.53613C358.579 -2.53613 357.426 -1.40066 357.426 1.85966e-05C357.426 1.4007 358.579 2.53617 360 2.53617Z" fill="#483E3A"/>
<path d="M400 2.53617C401.421 2.53617 402.574 1.4007 402.574 1.85966e-05C402.574 -1.40066 401.421 -2.53613 400 -2.53613C398.579 -2.53613 397.426 -1.40066 397.426 1.85966e-05C397.426 1.4007 398.579 2.53617 400 2.53617Z" fill="#483E3A"/>
<path d="M440 2.53617C441.421 2.53617 442.574 1.4007 442.574 1.85966e-05C442.574 -1.40066 441.421 -2.53613 440 -2.53613C438.579 -2.53613 437.426 -1.40066 437.426 1.85966e-05C437.426 1.4007 438.579 2.53617 440 2.53617Z" fill="#483E3A"/>
<path d="M480 2.53617C481.421 2.53617 482.574 1.4007 482.574 1.85966e-05C482.574 -1.40066 481.421 -2.53613 480 -2.53613C478.579 -2.53613 477.426 -1.40066 477.426 1.85966e-05C477.426 1.4007 478.579 2.53617 480 2.53617Z" fill="#483E3A"/>
<path d="M-4.64916e-05 41.9529C1.42136 41.9529 2.57364 40.8174 2.57364 39.4167C2.57364 38.016 1.42136 36.8806 -4.64916e-05 36.8806C-1.42145 36.8806 -2.57373 38.016 -2.57373 39.4167C-2.57373 40.8174 -1.42145 41.9529 -4.64916e-05 41.9529Z" fill="#483E3A"/>
<path d="M40 41.9529C41.4214 41.9529 42.5736 40.8174 42.5736 39.4167C42.5736 38.016 41.4214 36.8806 40 36.8806C38.5785 36.8806 37.4263 38.016 37.4263 39.4167C37.4263 40.8174 38.5785 41.9529 40 41.9529Z" fill="#483E3A"/>
<path d="M80 41.9529C81.4214 41.9529 82.5736 40.8174 82.5736 39.4167C82.5736 38.016 81.4214 36.8806 80 36.8806C78.5785 36.8806 77.4263 38.016 77.4263 39.4167C77.4263 40.8174 78.5785 41.9529 80 41.9529Z" fill="#483E3A"/>
<path d="M120 41.9529C121.421 41.9529 122.574 40.8174 122.574 39.4167C122.574 38.016 121.421 36.8806 120 36.8806C118.579 36.8806 117.426 38.016 117.426 39.4167C117.426 40.8174 118.579 41.9529 120 41.9529Z" fill="#483E3A"/>
<path d="M160 41.9529C161.421 41.9529 162.574 40.8174 162.574 39.4167C162.574 38.016 161.421 36.8806 160 36.8806C158.579 36.8806 157.426 38.016 157.426 39.4167C157.426 40.8174 158.579 41.9529 160 41.9529Z" fill="#483E3A"/>
<path d="M200 41.9529C201.421 41.9529 202.574 40.8174 202.574 39.4167C202.574 38.016 201.421 36.8806 200 36.8806C198.579 36.8806 197.426 38.016 197.426 39.4167C197.426 40.8174 198.579 41.9529 200 41.9529Z" fill="#483E3A"/>
<path d="M240 41.9529C241.421 41.9529 242.574 40.8174 242.574 39.4167C242.574 38.016 241.421 36.8806 240 36.8806C238.579 36.8806 237.426 38.016 237.426 39.4167C237.426 40.8174 238.579 41.9529 240 41.9529Z" fill="#483E3A"/>
<path d="M280 41.9529C281.421 41.9529 282.574 40.8174 282.574 39.4167C282.574 38.016 281.421 36.8806 280 36.8806C278.579 36.8806 277.426 38.016 277.426 39.4167C277.426 40.8174 278.579 41.9529 280 41.9529Z" fill="#483E3A"/>
<path d="M320 41.9529C321.421 41.9529 322.574 40.8174 322.574 39.4167C322.574 38.016 321.421 36.8806 320 36.8806C318.579 36.8806 317.426 38.016 317.426 39.4167C317.426 40.8174 318.579 41.9529 320 41.9529Z" fill="#483E3A"/>
<path d="M360 41.9529C361.421 41.9529 362.574 40.8174 362.574 39.4167C362.574 38.016 361.421 36.8806 360 36.8806C358.579 36.8806 357.426 38.016 357.426 39.4167C357.426 40.8174 358.579 41.9529 360 41.9529Z" fill="#483E3A"/>
<path d="M400 41.9529C401.421 41.9529 402.574 40.8174 402.574 39.4167C402.574 38.016 401.421 36.8806 400 36.8806C398.579 36.8806 397.426 38.016 397.426 39.4167C397.426 40.8174 398.579 41.9529 400 41.9529Z" fill="#483E3A"/>
<path d="M440 41.9529C441.421 41.9529 442.574 40.8174 442.574 39.4167C442.574 38.016 441.421 36.8806 440 36.8806C438.579 36.8806 437.426 38.016 437.426 39.4167C437.426 40.8174 438.579 41.9529 440 41.9529Z" fill="#483E3A"/>
<path d="M480 41.9529C481.421 41.9529 482.574 40.8174 482.574 39.4167C482.574 38.016 481.421 36.8806 480 36.8806C478.579 36.8806 477.426 38.016 477.426 39.4167C477.426 40.8174 478.579 41.9529 480 41.9529Z" fill="#483E3A"/>
<path d="M-4.64916e-05 81.3695C1.42136 81.3695 2.57364 80.234 2.57364 78.8333C2.57364 77.4327 1.42136 76.2972 -4.64916e-05 76.2972C-1.42145 76.2972 -2.57373 77.4327 -2.57373 78.8333C-2.57373 80.234 -1.42145 81.3695 -4.64916e-05 81.3695Z" fill="#483E3A"/>
<path d="M40 81.3695C41.4214 81.3695 42.5736 80.234 42.5736 78.8333C42.5736 77.4327 41.4214 76.2972 40 76.2972C38.5785 76.2972 37.4263 77.4327 37.4263 78.8333C37.4263 80.234 38.5785 81.3695 40 81.3695Z" fill="#483E3A"/>
<path d="M80 81.3695C81.4214 81.3695 82.5736 80.234 82.5736 78.8333C82.5736 77.4327 81.4214 76.2972 80 76.2972C78.5785 76.2972 77.4263 77.4327 77.4263 78.8333C77.4263 80.234 78.5785 81.3695 80 81.3695Z" fill="#483E3A"/>
<path d="M120 81.3695C121.421 81.3695 122.574 80.234 122.574 78.8333C122.574 77.4327 121.421 76.2972 120 76.2972C118.579 76.2972 117.426 77.4327 117.426 78.8333C117.426 80.234 118.579 81.3695 120 81.3695Z" fill="#483E3A"/>
<path d="M160 81.3695C161.421 81.3695 162.574 80.234 162.574 78.8333C162.574 77.4327 161.421 76.2972 160 76.2972C158.579 76.2972 157.426 77.4327 157.426 78.8333C157.426 80.234 158.579 81.3695 160 81.3695Z" fill="#483E3A"/>
<path d="M200 81.3695C201.421 81.3695 202.574 80.234 202.574 78.8333C202.574 77.4327 201.421 76.2972 200 76.2972C198.579 76.2972 197.426 77.4327 197.426 78.8333C197.426 80.234 198.579 81.3695 200 81.3695Z" fill="#483E3A"/>
<path d="M240 81.3695C241.421 81.3695 242.574 80.234 242.574 78.8333C242.574 77.4327 241.421 76.2972 240 76.2972C238.579 76.2972 237.426 77.4327 237.426 78.8333C237.426 80.234 238.579 81.3695 240 81.3695Z" fill="#483E3A"/>
<path d="M280 81.3695C281.421 81.3695 282.574 80.234 282.574 78.8333C282.574 77.4327 281.421 76.2972 280 76.2972C278.579 76.2972 277.426 77.4327 277.426 78.8333C277.426 80.234 278.579 81.3695 280 81.3695Z" fill="#483E3A"/>
<path d="M320 81.3695C321.421 81.3695 322.574 80.234 322.574 78.8333C322.574 77.4327 321.421 76.2972 320 76.2972C318.579 76.2972 317.426 77.4327 317.426 78.8333C317.426 80.234 318.579 81.3695 320 81.3695Z" fill="#483E3A"/>
<path d="M360 81.3695C361.421 81.3695 362.574 80.234 362.574 78.8333C362.574 77.4327 361.421 76.2972 360 76.2972C358.579 76.2972 357.426 77.4327 357.426 78.8333C357.426 80.234 358.579 81.3695 360 81.3695Z" fill="#483E3A"/>
<path d="M400 81.3695C401.421 81.3695 402.574 80.234 402.574 78.8333C402.574 77.4327 401.421 76.2972 400 76.2972C398.579 76.2972 397.426 77.4327 397.426 78.8333C397.426 80.234 398.579 81.3695 400 81.3695Z" fill="#483E3A"/>
<path d="M440 81.3695C441.421 81.3695 442.574 80.234 442.574 78.8333C442.574 77.4327 441.421 76.2972 440 76.2972C438.579 76.2972 437.426 77.4327 437.426 78.8333C437.426 80.234 438.579 81.3695 440 81.3695Z" fill="#483E3A"/>
<path d="M480 81.3695C481.421 81.3695 482.574 80.234 482.574 78.8333C482.574 77.4327 481.421 76.2972 480 76.2972C478.579 76.2972 477.426 77.4327 477.426 78.8333C477.426 80.234 478.579 81.3695 480 81.3695Z" fill="#483E3A"/>
<path d="M-4.64916e-05 120.786C1.42136 120.786 2.57364 119.651 2.57364 118.25C2.57364 116.849 1.42136 115.714 -4.64916e-05 115.714C-1.42145 115.714 -2.57373 116.849 -2.57373 118.25C-2.57373 119.651 -1.42145 120.786 -4.64916e-05 120.786Z" fill="#483E3A"/>
<path d="M40 120.786C41.4214 120.786 42.5736 119.651 42.5736 118.25C42.5736 116.849 41.4214 115.714 40 115.714C38.5785 115.714 37.4263 116.849 37.4263 118.25C37.4263 119.651 38.5785 120.786 40 120.786Z" fill="#483E3A"/>
<path d="M80 120.786C81.4214 120.786 82.5736 119.651 82.5736 118.25C82.5736 116.849 81.4214 115.714 80 115.714C78.5785 115.714 77.4263 116.849 77.4263 118.25C77.4263 119.651 78.5785 120.786 80 120.786Z" fill="#483E3A"/>
<path d="M120 120.786C121.421 120.786 122.574 119.651 122.574 118.25C122.574 116.849 121.421 115.714 120 115.714C118.579 115.714 117.426 116.849 117.426 118.25C117.426 119.651 118.579 120.786 120 120.786Z" fill="#483E3A"/>
<path d="M160 120.786C161.421 120.786 162.574 119.651 162.574 118.25C162.574 116.849 161.421 115.714 160 115.714C158.579 115.714 157.426 116.849 157.426 118.25C157.426 119.651 158.579 120.786 160 120.786Z" fill="#483E3A"/>
<path d="M200 120.786C201.421 120.786 202.574 119.651 202.574 118.25C202.574 116.849 201.421 115.714 200 115.714C198.579 115.714 197.426 116.849 197.426 118.25C197.426 119.651 198.579 120.786 200 120.786Z" fill="#483E3A"/>
<path d="M240 120.786C241.421 120.786 242.574 119.651 242.574 118.25C242.574 116.849 241.421 115.714 240 115.714C238.579 115.714 237.426 116.849 237.426 118.25C237.426 119.651 238.579 120.786 240 120.786Z" fill="#483E3A"/>
<path d="M280 120.786C281.421 120.786 282.574 119.651 282.574 118.25C282.574 116.849 281.421 115.714 280 115.714C278.579 115.714 277.426 116.849 277.426 118.25C277.426 119.651 278.579 120.786 280 120.786Z" fill="#483E3A"/>
<path d="M320 120.786C321.421 120.786 322.574 119.651 322.574 118.25C322.574 116.849 321.421 115.714 320 115.714C318.579 115.714 317.426 116.849 317.426 118.25C317.426 119.651 318.579 120.786 320 120.786Z" fill="#483E3A"/>
<path d="M360 120.786C361.421 120.786 362.574 119.651 362.574 118.25C362.574 116.849 361.421 115.714 360 115.714C358.579 115.714 357.426 116.849 357.426 118.25C357.426 119.651 358.579 120.786 360 120.786Z" fill="#483E3A"/>
<path d="M400 120.786C401.421 120.786 402.574 119.651 402.574 118.25C402.574 116.849 401.421 115.714 400 115.714C398.579 115.714 397.426 116.849 397.426 118.25C397.426 119.651 398.579 120.786 400 120.786Z" fill="#483E3A"/>
<path d="M440 120.786C441.421 120.786 442.574 119.651 442.574 118.25C442.574 116.849 441.421 115.714 440 115.714C438.579 115.714 437.426 116.849 437.426 118.25C437.426 119.651 438.579 120.786 440 120.786Z" fill="#483E3A"/>
<path d="M480 120.786C481.421 120.786 482.574 119.651 482.574 118.25C482.574 116.849 481.421 115.714 480 115.714C478.579 115.714 477.426 116.849 477.426 118.25C477.426 119.651 478.579 120.786 480 120.786Z" fill="#483E3A"/>
<path d="M-4.64916e-05 160.203C1.42136 160.203 2.57364 159.067 2.57364 157.667C2.57364 156.266 1.42136 155.13 -4.64916e-05 155.13C-1.42145 155.13 -2.57373 156.266 -2.57373 157.667C-2.57373 159.067 -1.42145 160.203 -4.64916e-05 160.203Z" fill="#483E3A"/>
<path d="M40 160.203C41.4214 160.203 42.5736 159.067 42.5736 157.667C42.5736 156.266 41.4214 155.13 40 155.13C38.5785 155.13 37.4263 156.266 37.4263 157.667C37.4263 159.067 38.5785 160.203 40 160.203Z" fill="#483E3A"/>
<path d="M80 160.203C81.4214 160.203 82.5736 159.067 82.5736 157.667C82.5736 156.266 81.4214 155.13 80 155.13C78.5785 155.13 77.4263 156.266 77.4263 157.667C77.4263 159.067 78.5785 160.203 80 160.203Z" fill="#483E3A"/>
<path d="M120 160.203C121.421 160.203 122.574 159.067 122.574 157.667C122.574 156.266 121.421 155.13 120 155.13C118.579 155.13 117.426 156.266 117.426 157.667C117.426 159.067 118.579 160.203 120 160.203Z" fill="#483E3A"/>
<path d="M160 160.203C161.421 160.203 162.574 159.067 162.574 157.667C162.574 156.266 161.421 155.13 160 155.13C158.579 155.13 157.426 156.266 157.426 157.667C157.426 159.067 158.579 160.203 160 160.203Z" fill="#483E3A"/>
<path d="M200 160.203C201.421 160.203 202.574 159.067 202.574 157.667C202.574 156.266 201.421 155.13 200 155.13C198.579 155.13 197.426 156.266 197.426 157.667C197.426 159.067 198.579 160.203 200 160.203Z" fill="#483E3A"/>
<path d="M240 160.203C241.421 160.203 242.574 159.067 242.574 157.667C242.574 156.266 241.421 155.13 240 155.13C238.579 155.13 237.426 156.266 237.426 157.667C237.426 159.067 238.579 160.203 240 160.203Z" fill="#483E3A"/>
<path d="M280 160.203C281.421 160.203 282.574 159.067 282.574 157.667C282.574 156.266 281.421 155.13 280 155.13C278.579 155.13 277.426 156.266 277.426 157.667C277.426 159.067 278.579 160.203 280 160.203Z" fill="#483E3A"/>
<path d="M320 160.203C321.421 160.203 322.574 159.067 322.574 157.667C322.574 156.266 321.421 155.13 320 155.13C318.579 155.13 317.426 156.266 317.426 157.667C317.426 159.067 318.579 160.203 320 160.203Z" fill="#483E3A"/>
<path d="M360 160.203C361.421 160.203 362.574 159.067 362.574 157.667C362.574 156.266 361.421 155.13 360 155.13C358.579 155.13 357.426 156.266 357.426 157.667C357.426 159.067 358.579 160.203 360 160.203Z" fill="#483E3A"/>
<path d="M400 160.203C401.421 160.203 402.574 159.067 402.574 157.667C402.574 156.266 401.421 155.13 400 155.13C398.579 155.13 397.426 156.266 397.426 157.667C397.426 159.067 398.579 160.203 400 160.203Z" fill="#483E3A"/>
<path d="M440 160.203C441.421 160.203 442.574 159.067 442.574 157.667C442.574 156.266 441.421 155.13 440 155.13C438.579 155.13 437.426 156.266 437.426 157.667C437.426 159.067 438.579 160.203 440 160.203Z" fill="#483E3A"/>
<path d="M480 160.203C481.421 160.203 482.574 159.067 482.574 157.667C482.574 156.266 481.421 155.13 480 155.13C478.579 155.13 477.426 156.266 477.426 157.667C477.426 159.067 478.579 160.203 480 160.203Z" fill="#483E3A"/>
<path d="M-4.64916e-05 199.619C1.42136 199.619 2.57364 198.484 2.57364 197.083C2.57364 195.683 1.42136 194.547 -4.64916e-05 194.547C-1.42145 194.547 -2.57373 195.683 -2.57373 197.083C-2.57373 198.484 -1.42145 199.619 -4.64916e-05 199.619Z" fill="#483E3A"/>
<path d="M40 199.619C41.4214 199.619 42.5736 198.484 42.5736 197.083C42.5736 195.683 41.4214 194.547 40 194.547C38.5785 194.547 37.4263 195.683 37.4263 197.083C37.4263 198.484 38.5785 199.619 40 199.619Z" fill="#483E3A"/>
<path d="M80 199.619C81.4214 199.619 82.5736 198.484 82.5736 197.083C82.5736 195.683 81.4214 194.547 80 194.547C78.5785 194.547 77.4263 195.683 77.4263 197.083C77.4263 198.484 78.5785 199.619 80 199.619Z" fill="#483E3A"/>
<path d="M120 199.619C121.421 199.619 122.574 198.484 122.574 197.083C122.574 195.683 121.421 194.547 120 194.547C118.579 194.547 117.426 195.683 117.426 197.083C117.426 198.484 118.579 199.619 120 199.619Z" fill="#483E3A"/>
<path d="M160 199.619C161.421 199.619 162.574 198.484 162.574 197.083C162.574 195.683 161.421 194.547 160 194.547C158.579 194.547 157.426 195.683 157.426 197.083C157.426 198.484 158.579 199.619 160 199.619Z" fill="#483E3A"/>
<path d="M200 199.619C201.421 199.619 202.574 198.484 202.574 197.083C202.574 195.683 201.421 194.547 200 194.547C198.579 194.547 197.426 195.683 197.426 197.083C197.426 198.484 198.579 199.619 200 199.619Z" fill="#483E3A"/>
<path d="M240 199.619C241.421 199.619 242.574 198.484 242.574 197.083C242.574 195.683 241.421 194.547 240 194.547C238.579 194.547 237.426 195.683 237.426 197.083C237.426 198.484 238.579 199.619 240 199.619Z" fill="#483E3A"/>
<path d="M280 199.619C281.421 199.619 282.574 198.484 282.574 197.083C282.574 195.683 281.421 194.547 280 194.547C278.579 194.547 277.426 195.683 277.426 197.083C277.426 198.484 278.579 199.619 280 199.619Z" fill="#483E3A"/>
<path d="M320 199.619C321.421 199.619 322.574 198.484 322.574 197.083C322.574 195.683 321.421 194.547 320 194.547C318.579 194.547 317.426 195.683 317.426 197.083C317.426 198.484 318.579 199.619 320 199.619Z" fill="#483E3A"/>
<path d="M360 199.619C361.421 199.619 362.574 198.484 362.574 197.083C362.574 195.683 361.421 194.547 360 194.547C358.579 194.547 357.426 195.683 357.426 197.083C357.426 198.484 358.579 199.619 360 199.619Z" fill="#483E3A"/>
<path d="M400 199.619C401.421 199.619 402.574 198.484 402.574 197.083C402.574 195.683 401.421 194.547 400 194.547C398.579 194.547 397.426 195.683 397.426 197.083C397.426 198.484 398.579 199.619 400 199.619Z" fill="#483E3A"/>
<path d="M440 199.619C441.421 199.619 442.574 198.484 442.574 197.083C442.574 195.683 441.421 194.547 440 194.547C438.579 194.547 437.426 195.683 437.426 197.083C437.426 198.484 438.579 199.619 440 199.619Z" fill="#483E3A"/>
<path d="M480 199.619C481.421 199.619 482.574 198.484 482.574 197.083C482.574 195.683 481.421 194.547 480 194.547C478.579 194.547 477.426 195.683 477.426 197.083C477.426 198.484 478.579 199.619 480 199.619Z" fill="#483E3A"/>
<path d="M-4.64916e-05 239.036C1.42136 239.036 2.57364 237.901 2.57364 236.5C2.57364 235.099 1.42136 233.964 -4.64916e-05 233.964C-1.42145 233.964 -2.57373 235.099 -2.57373 236.5C-2.57373 237.901 -1.42145 239.036 -4.64916e-05 239.036Z" fill="#483E3A"/>
<path d="M40 239.036C41.4214 239.036 42.5736 237.901 42.5736 236.5C42.5736 235.099 41.4214 233.964 40 233.964C38.5785 233.964 37.4263 235.099 37.4263 236.5C37.4263 237.901 38.5785 239.036 40 239.036Z" fill="#483E3A"/>
<path d="M80 239.036C81.4214 239.036 82.5736 237.901 82.5736 236.5C82.5736 235.099 81.4214 233.964 80 233.964C78.5785 233.964 77.4263 235.099 77.4263 236.5C77.4263 237.901 78.5785 239.036 80 239.036Z" fill="#483E3A"/>
<path d="M120 239.036C121.421 239.036 122.574 237.901 122.574 236.5C122.574 235.099 121.421 233.964 120 233.964C118.579 233.964 117.426 235.099 117.426 236.5C117.426 237.901 118.579 239.036 120 239.036Z" fill="#483E3A"/>
<path d="M160 239.036C161.421 239.036 162.574 237.901 162.574 236.5C162.574 235.099 161.421 233.964 160 233.964C158.579 233.964 157.426 235.099 157.426 236.5C157.426 237.901 158.579 239.036 160 239.036Z" fill="#483E3A"/>
<path d="M200 239.036C201.421 239.036 202.574 237.901 202.574 236.5C202.574 235.099 201.421 233.964 200 233.964C198.579 233.964 197.426 235.099 197.426 236.5C197.426 237.901 198.579 239.036 200 239.036Z" fill="#483E3A"/>
<path d="M240 239.036C241.421 239.036 242.574 237.901 242.574 236.5C242.574 235.099 241.421 233.964 240 233.964C238.579 233.964 237.426 235.099 237.426 236.5C237.426 237.901 238.579 239.036 240 239.036Z" fill="#483E3A"/>
<path d="M280 239.036C281.421 239.036 282.574 237.901 282.574 236.5C282.574 235.099 281.421 233.964 280 233.964C278.579 233.964 277.426 235.099 277.426 236.5C277.426 237.901 278.579 239.036 280 239.036Z" fill="#483E3A"/>
<path d="M320 239.036C321.421 239.036 322.574 237.901 322.574 236.5C322.574 235.099 321.421 233.964 320 233.964C318.579 233.964 317.426 235.099 317.426 236.5C317.426 237.901 318.579 239.036 320 239.036Z" fill="#483E3A"/>
<path d="M360 239.036C361.421 239.036 362.574 237.901 362.574 236.5C362.574 235.099 361.421 233.964 360 233.964C358.579 233.964 357.426 235.099 357.426 236.5C357.426 237.901 358.579 239.036 360 239.036Z" fill="#483E3A"/>
<path d="M400 239.036C401.421 239.036 402.574 237.901 402.574 236.5C402.574 235.099 401.421 233.964 400 233.964C398.579 233.964 397.426 235.099 397.426 236.5C397.426 237.901 398.579 239.036 400 239.036Z" fill="#483E3A"/>
<path d="M440 239.036C441.421 239.036 442.574 237.901 442.574 236.5C442.574 235.099 441.421 233.964 440 233.964C438.579 233.964 437.426 235.099 437.426 236.5C437.426 237.901 438.579 239.036 440 239.036Z" fill="#483E3A"/>
<path d="M480 239.036C481.421 239.036 482.574 237.901 482.574 236.5C482.574 235.099 481.421 233.964 480 233.964C478.579 233.964 477.426 235.099 477.426 236.5C477.426 237.901 478.579 239.036 480 239.036Z" fill="#483E3A"/>
<path d="M-4.64916e-05 278.453C1.42136 278.453 2.57364 277.317 2.57364 275.917C2.57364 274.516 1.42136 273.38 -4.64916e-05 273.38C-1.42145 273.38 -2.57373 274.516 -2.57373 275.917C-2.57373 277.317 -1.42145 278.453 -4.64916e-05 278.453Z" fill="#483E3A"/>
<path d="M40 278.453C41.4214 278.453 42.5736 277.317 42.5736 275.917C42.5736 274.516 41.4214 273.38 40 273.38C38.5785 273.38 37.4263 274.516 37.4263 275.917C37.4263 277.317 38.5785 278.453 40 278.453Z" fill="#483E3A"/>
<path d="M80 278.453C81.4214 278.453 82.5736 277.317 82.5736 275.917C82.5736 274.516 81.4214 273.38 80 273.38C78.5785 273.38 77.4263 274.516 77.4263 275.917C77.4263 277.317 78.5785 278.453 80 278.453Z" fill="#483E3A"/>
<path d="M120 278.453C121.421 278.453 122.574 277.317 122.574 275.917C122.574 274.516 121.421 273.38 120 273.38C118.579 273.38 117.426 274.516 117.426 275.917C117.426 277.317 118.579 278.453 120 278.453Z" fill="#483E3A"/>
<path d="M160 278.453C161.421 278.453 162.574 277.317 162.574 275.917C162.574 274.516 161.421 273.38 160 273.38C158.579 273.38 157.426 274.516 157.426 275.917C157.426 277.317 158.579 278.453 160 278.453Z" fill="#483E3A"/>
<path d="M200 278.453C201.421 278.453 202.574 277.317 202.574 275.917C202.574 274.516 201.421 273.38 200 273.38C198.579 273.38 197.426 274.516 197.426 275.917C197.426 277.317 198.579 278.453 200 278.453Z" fill="#483E3A"/>
<path d="M240 278.453C241.421 278.453 242.574 277.317 242.574 275.917C242.574 274.516 241.421 273.38 240 273.38C238.579 273.38 237.426 274.516 237.426 275.917C237.426 277.317 238.579 278.453 240 278.453Z" fill="#483E3A"/>
<path d="M280 278.453C281.421 278.453 282.574 277.317 282.574 275.917C282.574 274.516 281.421 273.38 280 273.38C278.579 273.38 277.426 274.516 277.426 275.917C277.426 277.317 278.579 278.453 280 278.453Z" fill="#483E3A"/>
<path d="M320 278.453C321.421 278.453 322.574 277.317 322.574 275.917C322.574 274.516 321.421 273.38 320 273.38C318.579 273.38 317.426 274.516 317.426 275.917C317.426 277.317 318.579 278.453 320 278.453Z" fill="#483E3A"/>
<path d="M360 278.453C361.421 278.453 362.574 277.317 362.574 275.917C362.574 274.516 361.421 273.38 360 273.38C358.579 273.38 357.426 274.516 357.426 275.917C357.426 277.317 358.579 278.453 360 278.453Z" fill="#483E3A"/>
<path d="M400 278.453C401.421 278.453 402.574 277.317 402.574 275.917C402.574 274.516 401.421 273.38 400 273.38C398.579 273.38 397.426 274.516 397.426 275.917C397.426 277.317 398.579 278.453 400 278.453Z" fill="#483E3A"/>
<path d="M440 278.453C441.421 278.453 442.574 277.317 442.574 275.917C442.574 274.516 441.421 273.38 440 273.38C438.579 273.38 437.426 274.516 437.426 275.917C437.426 277.317 438.579 278.453 440 278.453Z" fill="#483E3A"/>
<path d="M480 278.453C481.421 278.453 482.574 277.317 482.574 275.917C482.574 274.516 481.421 273.38 480 273.38C478.579 273.38 477.426 274.516 477.426 275.917C477.426 277.317 478.579 278.453 480 278.453Z" fill="#483E3A"/>
<path d="M-4.64916e-05 317.87C1.42136 317.87 2.57364 316.734 2.57364 315.333C2.57364 313.933 1.42136 312.797 -4.64916e-05 312.797C-1.42145 312.797 -2.57373 313.933 -2.57373 315.333C-2.57373 316.734 -1.42145 317.87 -4.64916e-05 317.87Z" fill="#483E3A"/>
<path d="M40 317.87C41.4214 317.87 42.5736 316.734 42.5736 315.333C42.5736 313.933 41.4214 312.797 40 312.797C38.5785 312.797 37.4263 313.933 37.4263 315.333C37.4263 316.734 38.5785 317.87 40 317.87Z" fill="#483E3A"/>
<path d="M80 317.87C81.4214 317.87 82.5736 316.734 82.5736 315.333C82.5736 313.933 81.4214 312.797 80 312.797C78.5785 312.797 77.4263 313.933 77.4263 315.333C77.4263 316.734 78.5785 317.87 80 317.87Z" fill="#483E3A"/>
<path d="M120 317.87C121.421 317.87 122.574 316.734 122.574 315.333C122.574 313.933 121.421 312.797 120 312.797C118.579 312.797 117.426 313.933 117.426 315.333C117.426 316.734 118.579 317.87 120 317.87Z" fill="#483E3A"/>
<path d="M160 317.87C161.421 317.87 162.574 316.734 162.574 315.333C162.574 313.933 161.421 312.797 160 312.797C158.579 312.797 157.426 313.933 157.426 315.333C157.426 316.734 158.579 317.87 160 317.87Z" fill="#483E3A"/>
<path d="M200 317.87C201.421 317.87 202.574 316.734 202.574 315.333C202.574 313.933 201.421 312.797 200 312.797C198.579 312.797 197.426 313.933 197.426 315.333C197.426 316.734 198.579 317.87 200 317.87Z" fill="#483E3A"/>
<path d="M240 317.87C241.421 317.87 242.574 316.734 242.574 315.333C242.574 313.933 241.421 312.797 240 312.797C238.579 312.797 237.426 313.933 237.426 315.333C237.426 316.734 238.579 317.87 240 317.87Z" fill="#483E3A"/>
<path d="M280 317.87C281.421 317.87 282.574 316.734 282.574 315.333C282.574 313.933 281.421 312.797 280 312.797C278.579 312.797 277.426 313.933 277.426 315.333C277.426 316.734 278.579 317.87 280 317.87Z" fill="#483E3A"/>
<path d="M320 317.87C321.421 317.87 322.574 316.734 322.574 315.333C322.574 313.933 321.421 312.797 320 312.797C318.579 312.797 317.426 313.933 317.426 315.333C317.426 316.734 318.579 317.87 320 317.87Z" fill="#483E3A"/>
<path d="M360 317.87C361.421 317.87 362.574 316.734 362.574 315.333C362.574 313.933 361.421 312.797 360 312.797C358.579 312.797 357.426 313.933 357.426 315.333C357.426 316.734 358.579 317.87 360 317.87Z" fill="#483E3A"/>
<path d="M400 317.87C401.421 317.87 402.574 316.734 402.574 315.333C402.574 313.933 401.421 312.797 400 312.797C398.579 312.797 397.426 313.933 397.426 315.333C397.426 316.734 398.579 317.87 400 317.87Z" fill="#483E3A"/>
<path d="M440 317.87C441.421 317.87 442.574 316.734 442.574 315.333C442.574 313.933 441.421 312.797 440 312.797C438.579 312.797 437.426 313.933 437.426 315.333C437.426 316.734 438.579 317.87 440 317.87Z" fill="#483E3A"/>
<path d="M480 317.87C481.421 317.87 482.574 316.734 482.574 315.333C482.574 313.933 481.421 312.797 480 312.797C478.579 312.797 477.426 313.933 477.426 315.333C477.426 316.734 478.579 317.87 480 317.87Z" fill="#483E3A"/>
<path d="M-4.64916e-05 357.286C1.42136 357.286 2.57364 356.151 2.57364 354.75C2.57364 353.349 1.42136 352.214 -4.64916e-05 352.214C-1.42145 352.214 -2.57373 353.349 -2.57373 354.75C-2.57373 356.151 -1.42145 357.286 -4.64916e-05 357.286Z" fill="#483E3A"/>
<path d="M40 357.286C41.4214 357.286 42.5736 356.151 42.5736 354.75C42.5736 353.349 41.4214 352.214 40 352.214C38.5785 352.214 37.4263 353.349 37.4263 354.75C37.4263 356.151 38.5785 357.286 40 357.286Z" fill="#483E3A"/>
<path d="M80 357.286C81.4214 357.286 82.5736 356.151 82.5736 354.75C82.5736 353.349 81.4214 352.214 80 352.214C78.5785 352.214 77.4263 353.349 77.4263 354.75C77.4263 356.151 78.5785 357.286 80 357.286Z" fill="#483E3A"/>
<path d="M120 357.286C121.421 357.286 122.574 356.151 122.574 354.75C122.574 353.349 121.421 352.214 120 352.214C118.579 352.214 117.426 353.349 117.426 354.75C117.426 356.151 118.579 357.286 120 357.286Z" fill="#483E3A"/>
<path d="M160 357.286C161.421 357.286 162.574 356.151 162.574 354.75C162.574 353.349 161.421 352.214 160 352.214C158.579 352.214 157.426 353.349 157.426 354.75C157.426 356.151 158.579 357.286 160 357.286Z" fill="#483E3A"/>
<path d="M200 357.286C201.421 357.286 202.574 356.151 202.574 354.75C202.574 353.349 201.421 352.214 200 352.214C198.579 352.214 197.426 353.349 197.426 354.75C197.426 356.151 198.579 357.286 200 357.286Z" fill="#483E3A"/>
<path d="M240 357.286C241.421 357.286 242.574 356.151 242.574 354.75C242.574 353.349 241.421 352.214 240 352.214C238.579 352.214 237.426 353.349 237.426 354.75C237.426 356.151 238.579 357.286 240 357.286Z" fill="#483E3A"/>
<path d="M280 357.286C281.421 357.286 282.574 356.151 282.574 354.75C282.574 353.349 281.421 352.214 280 352.214C278.579 352.214 277.426 353.349 277.426 354.75C277.426 356.151 278.579 357.286 280 357.286Z" fill="#483E3A"/>
<path d="M320 357.286C321.421 357.286 322.574 356.151 322.574 354.75C322.574 353.349 321.421 352.214 320 352.214C318.579 352.214 317.426 353.349 317.426 354.75C317.426 356.151 318.579 357.286 320 357.286Z" fill="#483E3A"/>
<path d="M360 357.286C361.421 357.286 362.574 356.151 362.574 354.75C362.574 353.349 361.421 352.214 360 352.214C358.579 352.214 357.426 353.349 357.426 354.75C357.426 356.151 358.579 357.286 360 357.286Z" fill="#483E3A"/>
<path d="M400 357.286C401.421 357.286 402.574 356.151 402.574 354.75C402.574 353.349 401.421 352.214 400 352.214C398.579 352.214 397.426 353.349 397.426 354.75C397.426 356.151 398.579 357.286 400 357.286Z" fill="#483E3A"/>
<path d="M440 357.286C441.421 357.286 442.574 356.151 442.574 354.75C442.574 353.349 441.421 352.214 440 352.214C438.579 352.214 437.426 353.349 437.426 354.75C437.426 356.151 438.579 357.286 440 357.286Z" fill="#483E3A"/>
<path d="M480 357.286C481.421 357.286 482.574 356.151 482.574 354.75C482.574 353.349 481.421 352.214 480 352.214C478.579 352.214 477.426 353.349 477.426 354.75C477.426 356.151 478.579 357.286 480 357.286Z" fill="#483E3A"/>
<path d="M-4.64916e-05 396.703C1.42136 396.703 2.57364 395.567 2.57364 394.167C2.57364 392.766 1.42136 391.631 -4.64916e-05 391.631C-1.42145 391.631 -2.57373 392.766 -2.57373 394.167C-2.57373 395.567 -1.42145 396.703 -4.64916e-05 396.703Z" fill="#483E3A"/>
<path d="M40 396.703C41.4214 396.703 42.5736 395.567 42.5736 394.167C42.5736 392.766 41.4214 391.631 40 391.631C38.5785 391.631 37.4263 392.766 37.4263 394.167C37.4263 395.567 38.5785 396.703 40 396.703Z" fill="#483E3A"/>
<path d="M80 396.703C81.4214 396.703 82.5736 395.567 82.5736 394.167C82.5736 392.766 81.4214 391.631 80 391.631C78.5785 391.631 77.4263 392.766 77.4263 394.167C77.4263 395.567 78.5785 396.703 80 396.703Z" fill="#483E3A"/>
<path d="M120 396.703C121.421 396.703 122.574 395.567 122.574 394.167C122.574 392.766 121.421 391.631 120 391.631C118.579 391.631 117.426 392.766 117.426 394.167C117.426 395.567 118.579 396.703 120 396.703Z" fill="#483E3A"/>
<path d="M160 396.703C161.421 396.703 162.574 395.567 162.574 394.167C162.574 392.766 161.421 391.631 160 391.631C158.579 391.631 157.426 392.766 157.426 394.167C157.426 395.567 158.579 396.703 160 396.703Z" fill="#483E3A"/>
<path d="M200 396.703C201.421 396.703 202.574 395.567 202.574 394.167C202.574 392.766 201.421 391.631 200 391.631C198.579 391.631 197.426 392.766 197.426 394.167C197.426 395.567 198.579 396.703 200 396.703Z" fill="#483E3A"/>
<path d="M240 396.703C241.421 396.703 242.574 395.567 242.574 394.167C242.574 392.766 241.421 391.631 240 391.631C238.579 391.631 237.426 392.766 237.426 394.167C237.426 395.567 238.579 396.703 240 396.703Z" fill="#483E3A"/>
<path d="M280 396.703C281.421 396.703 282.574 395.567 282.574 394.167C282.574 392.766 281.421 391.631 280 391.631C278.579 391.631 277.426 392.766 277.426 394.167C277.426 395.567 278.579 396.703 280 396.703Z" fill="#483E3A"/>
<path d="M320 396.703C321.421 396.703 322.574 395.567 322.574 394.167C322.574 392.766 321.421 391.631 320 391.631C318.579 391.631 317.426 392.766 317.426 394.167C317.426 395.567 318.579 396.703 320 396.703Z" fill="#483E3A"/>
<path d="M360 396.703C361.421 396.703 362.574 395.567 362.574 394.167C362.574 392.766 361.421 391.631 360 391.631C358.579 391.631 357.426 392.766 357.426 394.167C357.426 395.567 358.579 396.703 360 396.703Z" fill="#483E3A"/>
<path d="M400 396.703C401.421 396.703 402.574 395.567 402.574 394.167C402.574 392.766 401.421 391.631 400 391.631C398.579 391.631 397.426 392.766 397.426 394.167C397.426 395.567 398.579 396.703 400 396.703Z" fill="#483E3A"/>
<path d="M440 396.703C441.421 396.703 442.574 395.567 442.574 394.167C442.574 392.766 441.421 391.631 440 391.631C438.579 391.631 437.426 392.766 437.426 394.167C437.426 395.567 438.579 396.703 440 396.703Z" fill="#483E3A"/>
<path d="M480 396.703C481.421 396.703 482.574 395.567 482.574 394.167C482.574 392.766 481.421 391.631 480 391.631C478.579 391.631 477.426 392.766 477.426 394.167C477.426 395.567 478.579 396.703 480 396.703Z" fill="#483E3A"/>
<path d="M-4.64916e-05 436.12C1.42136 436.12 2.57364 434.984 2.57364 433.583C2.57364 432.183 1.42136 431.047 -4.64916e-05 431.047C-1.42145 431.047 -2.57373 432.183 -2.57373 433.583C-2.57373 434.984 -1.42145 436.12 -4.64916e-05 436.12Z" fill="#483E3A"/>
<path d="M40 436.12C41.4214 436.12 42.5736 434.984 42.5736 433.583C42.5736 432.183 41.4214 431.047 40 431.047C38.5785 431.047 37.4263 432.183 37.4263 433.583C37.4263 434.984 38.5785 436.12 40 436.12Z" fill="#483E3A"/>
<path d="M80 436.12C81.4214 436.12 82.5736 434.984 82.5736 433.583C82.5736 432.183 81.4214 431.047 80 431.047C78.5785 431.047 77.4263 432.183 77.4263 433.583C77.4263 434.984 78.5785 436.12 80 436.12Z" fill="#483E3A"/>
<path d="M120 436.12C121.421 436.12 122.574 434.984 122.574 433.583C122.574 432.183 121.421 431.047 120 431.047C118.579 431.047 117.426 432.183 117.426 433.583C117.426 434.984 118.579 436.12 120 436.12Z" fill="#483E3A"/>
<path d="M160 436.12C161.421 436.12 162.574 434.984 162.574 433.583C162.574 432.183 161.421 431.047 160 431.047C158.579 431.047 157.426 432.183 157.426 433.583C157.426 434.984 158.579 436.12 160 436.12Z" fill="#483E3A"/>
<path d="M200 436.12C201.421 436.12 202.574 434.984 202.574 433.583C202.574 432.183 201.421 431.047 200 431.047C198.579 431.047 197.426 432.183 197.426 433.583C197.426 434.984 198.579 436.12 200 436.12Z" fill="#483E3A"/>
<path d="M240 436.12C241.421 436.12 242.574 434.984 242.574 433.583C242.574 432.183 241.421 431.047 240 431.047C238.579 431.047 237.426 432.183 237.426 433.583C237.426 434.984 238.579 436.12 240 436.12Z" fill="#483E3A"/>
<path d="M280 436.12C281.421 436.12 282.574 434.984 282.574 433.583C282.574 432.183 281.421 431.047 280 431.047C278.579 431.047 277.426 432.183 277.426 433.583C277.426 434.984 278.579 436.12 280 436.12Z" fill="#483E3A"/>
<path d="M320 436.12C321.421 436.12 322.574 434.984 322.574 433.583C322.574 432.183 321.421 431.047 320 431.047C318.579 431.047 317.426 432.183 317.426 433.583C317.426 434.984 318.579 436.12 320 436.12Z" fill="#483E3A"/>
<path d="M360 436.12C361.421 436.12 362.574 434.984 362.574 433.583C362.574 432.183 361.421 431.047 360 431.047C358.579 431.047 357.426 432.183 357.426 433.583C357.426 434.984 358.579 436.12 360 436.12Z" fill="#483E3A"/>
<path d="M400 436.12C401.421 436.12 402.574 434.984 402.574 433.583C402.574 432.183 401.421 431.047 400 431.047C398.579 431.047 397.426 432.183 397.426 433.583C397.426 434.984 398.579 436.12 400 436.12Z" fill="#483E3A"/>
<path d="M440 436.12C441.421 436.12 442.574 434.984 442.574 433.583C442.574 432.183 441.421 431.047 440 431.047C438.579 431.047 437.426 432.183 437.426 433.583C437.426 434.984 438.579 436.12 440 436.12Z" fill="#483E3A"/>
<path d="M480 436.12C481.421 436.12 482.574 434.984 482.574 433.583C482.574 432.183 481.421 431.047 480 431.047C478.579 431.047 477.426 432.183 477.426 433.583C477.426 434.984 478.579 436.12 480 436.12Z" fill="#483E3A"/>
<path d="M-4.64916e-05 475.536C1.42136 475.536 2.57364 474.401 2.57364 473C2.57364 471.599 1.42136 470.464 -4.64916e-05 470.464C-1.42145 470.464 -2.57373 471.599 -2.57373 473C-2.57373 474.401 -1.42145 475.536 -4.64916e-05 475.536Z" fill="#483E3A"/>
<path d="M40 475.536C41.4214 475.536 42.5736 474.401 42.5736 473C42.5736 471.599 41.4214 470.464 40 470.464C38.5785 470.464 37.4263 471.599 37.4263 473C37.4263 474.401 38.5785 475.536 40 475.536Z" fill="#483E3A"/>
<path d="M80 475.536C81.4214 475.536 82.5736 474.401 82.5736 473C82.5736 471.599 81.4214 470.464 80 470.464C78.5785 470.464 77.4263 471.599 77.4263 473C77.4263 474.401 78.5785 475.536 80 475.536Z" fill="#483E3A"/>
<path d="M120 475.536C121.421 475.536 122.574 474.401 122.574 473C122.574 471.599 121.421 470.464 120 470.464C118.579 470.464 117.426 471.599 117.426 473C117.426 474.401 118.579 475.536 120 475.536Z" fill="#483E3A"/>
<path d="M160 475.536C161.421 475.536 162.574 474.401 162.574 473C162.574 471.599 161.421 470.464 160 470.464C158.579 470.464 157.426 471.599 157.426 473C157.426 474.401 158.579 475.536 160 475.536Z" fill="#483E3A"/>
<path d="M200 475.536C201.421 475.536 202.574 474.401 202.574 473C202.574 471.599 201.421 470.464 200 470.464C198.579 470.464 197.426 471.599 197.426 473C197.426 474.401 198.579 475.536 200 475.536Z" fill="#483E3A"/>
<path d="M240 475.536C241.421 475.536 242.574 474.401 242.574 473C242.574 471.599 241.421 470.464 240 470.464C238.579 470.464 237.426 471.599 237.426 473C237.426 474.401 238.579 475.536 240 475.536Z" fill="#483E3A"/>
<path d="M280 475.536C281.421 475.536 282.574 474.401 282.574 473C282.574 471.599 281.421 470.464 280 470.464C278.579 470.464 277.426 471.599 277.426 473C277.426 474.401 278.579 475.536 280 475.536Z" fill="#483E3A"/>
<path d="M320 475.536C321.421 475.536 322.574 474.401 322.574 473C322.574 471.599 321.421 470.464 320 470.464C318.579 470.464 317.426 471.599 317.426 473C317.426 474.401 318.579 475.536 320 475.536Z" fill="#483E3A"/>
<path d="M360 475.536C361.421 475.536 362.574 474.401 362.574 473C362.574 471.599 361.421 470.464 360 470.464C358.579 470.464 357.426 471.599 357.426 473C357.426 474.401 358.579 475.536 360 475.536Z" fill="#483E3A"/>
<path d="M400 475.536C401.421 475.536 402.574 474.401 402.574 473C402.574 471.599 401.421 470.464 400 470.464C398.579 470.464 397.426 471.599 397.426 473C397.426 474.401 398.579 475.536 400 475.536Z" fill="#483E3A"/>
<path d="M440 475.536C441.421 475.536 442.574 474.401 442.574 473C442.574 471.599 441.421 470.464 440 470.464C438.579 470.464 437.426 471.599 437.426 473C437.426 474.401 438.579 475.536 440 475.536Z" fill="#483E3A"/>
<path d="M480 475.536C481.421 475.536 482.574 474.401 482.574 473C482.574 471.599 481.421 470.464 480 470.464C478.579 470.464 477.426 471.599 477.426 473C477.426 474.401 478.579 475.536 480 475.536Z" fill="#483E3A"/>
</g>
<defs>
<clipPath id="clip0_133_1155">
<rect width="480" height="473" fill="white"/>
</clipPath>
</defs>
</svg>
