<svg width="395" height="67" viewBox="0 0 395 67" fill="none" xmlns="http://www.w3.org/2000/svg">
<path d="M0 66.1274V6.63589C26.9211 4.06736 53.8423 1.49884 84.2118 3.85962C114.581 6.22039 148.399 13.5105 182.139 12.7172C215.878 11.924 249.54 3.04751 285.003 0.686735C320.467 -1.67404 357.734 2.48092 395 6.63589V66.1274H0Z" fill="#F6F2EB" fill-opacity="0.4"/>
<path d="M0 66.1274V26.4664C34.5723 28.6336 69.1446 30.8008 98.4757 28.5817C127.807 26.3625 151.897 19.7571 185.705 20.9139C219.513 22.0707 263.039 30.9897 299.542 33.2088C336.044 35.4279 365.522 30.9472 395 26.4664V66.1274H0Z" fill="#F6F2EB" fill-opacity="0.53"/>
<path d="M0 66.1274V46.2969C38.873 48.6907 77.746 51.0846 105.608 52.3783C133.469 53.672 150.319 53.8655 184.608 50.6596C218.896 47.4537 270.622 40.8482 308.594 39.5545C346.565 38.2608 370.783 42.2789 395 46.2969V66.1274H0Z" fill="#F6F2EB"/>
</svg>
