<svg width="81" height="81" viewBox="0 0 81 81" fill="none" xmlns="http://www.w3.org/2000/svg">
<g clip-path="url(#clip0_133_1401)">
<g clip-path="url(#clip1_133_1401)">
<g clip-path="url(#clip2_133_1401)">
<path d="M5.30575 51.1245L6.2489 52.1726L5.77733 50.8099C5.65937 50.1811 4.83418 50.9148 5.30575 51.1245ZM6.36685 50.4956C6.72047 51.0196 7.07434 51.5437 7.07434 52.0677C7.07434 52.8014 7.78182 53.1157 8.3711 53.3252C7.54566 52.4869 7.07408 50.1811 6.36685 50.4956ZM51.6418 6.05903C53.646 6.05903 55.5326 5.84933 57.655 6.2685C62.8428 7.4214 67.2052 9.72698 70.1528 12.976L78.4062 24.714C78.7598 27.6484 79.4673 30.8974 79.3494 34.4608C80.1748 34.4608 80.0569 33.4127 81 33.203C80.0569 35.2991 79.585 37.9192 79.3494 40.9585C78.7598 39.2816 79.3494 36.7663 79.4673 35.404C78.6419 36.5569 78.1703 35.7183 78.1703 35.1943C78.2883 34.3559 77.8167 34.4606 77.4628 34.1462C76.1658 33.0982 75.3406 31.9453 74.3975 30.1637C74.987 28.8014 75.105 26.8101 73.2184 25.7621C72.6289 25.4477 71.9214 24.9237 71.5678 24.0851C71.0962 22.9322 70.2708 21.5699 70.5065 19.7883C70.6244 19.2643 68.7379 20.9412 67.6768 20.2075C63.0785 17.3779 58.4802 14.1289 52.9388 11.4039C49.9912 11.4039 47.869 10.4607 46.8079 9.3078C45.8647 8.25975 46.572 6.89738 47.9869 6.79253C48.8124 6.79253 49.7555 6.58283 50.463 7.00223C50.581 6.58305 51.0525 6.05903 51.6418 6.05903ZM39.9695 3.64838L40.2054 3.75323C41.3844 3.96293 41.9739 5.43015 43.2707 4.90613C43.2707 5.63985 43.3887 6.37335 43.1528 6.89738C42.7991 7.73573 41.7378 7.73573 40.9126 7.73573C33.0131 7.31655 28.4148 10.251 23.5809 12.7663C22.2839 13.5 20.8691 14.024 19.8078 14.9672C14.738 19.1594 9.19654 23.0371 7.89953 30.7926L6.83843 39.3865C6.72047 40.3297 5.54141 41.2729 5.77733 42.4258L6.60251 47.5612C5.77707 46.8274 5.3055 47.7709 5.54141 48.19C5.65937 48.5044 6.13094 49.5524 6.83843 48.6092C7.78157 50.1813 8.72497 53.2206 10.0217 54.583C14.0305 58.7752 19.2183 62.548 23.4629 66.321C24.524 66.1113 25.3495 66.1113 25.5851 65.4824C25.9387 66.1113 25.2315 66.7402 24.642 66.845C26.5285 67.8931 28.6507 68.8363 31.4804 69.0457C35.1355 69.2554 38.5547 69.7795 41.738 70.5132C43.3887 70.094 45.0393 69.8843 46.8079 69.7795C47.3974 69.7795 47.751 68.9411 48.4585 68.7314L48.5765 67.6834C49.2839 68.6266 49.166 67.369 48.6944 66.7402C49.5199 67.369 49.7555 67.8931 50.1091 68.3122C50.1091 67.9979 51.0523 66.845 51.0525 68.2074L51.2882 66.845C51.6418 66.6353 51.7598 67.9979 52.1136 67.0545C52.4672 66.1113 53.1747 66.8448 53.8822 66.5305C53.6463 66.9496 53.7643 67.7882 54.5894 67.2642L55.5328 66.5305C56.1224 67.7882 57.0655 67.2642 57.5371 67.0545C62.7249 64.12 67.9127 60.6616 72.8646 57.2031L72.7466 58.5655L73.3361 56.8885C73.9257 57.4126 74.3972 56.9934 74.6331 56.6791C75.3406 55.631 76.2838 54.583 77.8167 53.6398C75.9302 58.1463 73.69 61.7096 70.8603 64.6441L69.6813 65.9018C69.6813 66.6355 69.4454 67.5787 68.5022 67.6834C68.0306 67.7882 67.0872 67.4737 66.38 68.1025C66.0264 68.5217 67.2055 69.3603 66.2621 68.7314C65.4366 68.2074 64.6114 68.7314 63.668 68.9411C62.9605 69.1508 64.1396 69.7795 64.3755 70.1986C64.6114 70.6178 64.8471 71.037 64.7294 71.5612L63.4324 70.3035C61.8997 71.0372 60.9563 72.3996 59.6593 73.4476C59.0698 73.8668 59.3057 74.6005 59.3057 75.2292C58.4802 75.2292 57.5371 75.0195 57.0655 75.4389C56.7119 75.8581 56.8296 76.4869 56.8296 77.1158C55.6505 77.011 55.5326 75.4389 54.4717 75.7532C53.4106 75.9629 52.2316 76.0675 51.2882 76.5918C51.9957 77.8495 50.1091 77.1158 50.345 77.3253C48.5765 76.3821 47.0438 75.6484 45.1572 76.2772C41.1485 75.1244 36.1966 75.6484 32.5415 76.0678C32.5415 75.5437 32.6595 75.0197 32.4235 74.9149C32.1876 75.4389 31.4804 75.2292 31.5984 75.2292C29.3582 73.8668 27.118 73.0282 24.7599 71.8756C22.6377 72.0853 20.6332 71.1418 20.0437 70.6178C18.3931 69.2554 16.5065 69.9889 14.9739 69.6746C11.6726 68.9409 10.4936 65.9016 10.1397 63.8057C9.90377 62.7577 8.96062 62.3385 8.60701 62.4431C7.07434 58.0414 4.71623 54.0589 2.82968 49.9716C2.35811 48.9235 2.47607 47.8755 2.47607 46.7226C3.0656 46.9323 3.65513 46.8274 3.53717 46.0939C2.94764 42.6355 1.53293 40.0154 0 37.5001C0.825441 33.9368 0.943144 29.7445 2.82968 26.6004C4.48031 23.7708 7.54591 22.3033 9.66811 19.8929C10.3756 19.0546 10.3756 17.9017 11.0831 17.1682C13.4412 15.0721 15.7993 12.8711 18.3931 10.9847C19.5721 10.1464 20.9868 10.9847 22.7554 10.6704C23.345 8.784 25.7031 7.10708 27.9432 7.6311C28.8864 7.8408 30.7729 5.63985 31.3624 5.43015C32.3056 5.11583 31.834 6.2685 31.834 7.00223C34.0742 5.43015 37.1398 4.5918 39.9695 3.64838Z" fill="#FEFEFE"/>
<g clip-path="url(#clip3_133_1401)">
<g clip-path="url(#clip4_133_1401)">
<g clip-path="url(#clip5_133_1401)">
<g clip-path="url(#clip6_133_1401)">
<g clip-path="url(#clip7_133_1401)">
<g clip-path="url(#clip8_133_1401)">
<g clip-path="url(#clip9_133_1401)">
<path d="M16.2014 41.7055V41.1293H17.6646V30.7903H16.2014V30.214H25.2954V32.8482H24.3323V30.8232H18.7944V35.647H22.9247V34.297H23.7581V37.6061H22.9247V36.2561H18.7944V41.1293H20.628V41.7055H16.2014ZM32.8151 41.261C33.4942 41.261 34.1017 41.1534 34.6376 40.9383C35.1759 40.7254 35.6303 40.4214 36.0007 40.0262C36.3712 39.6311 36.6514 39.1515 36.8416 38.5873C37.0342 38.021 37.1305 37.3811 37.1305 36.6677V35.2518C37.1305 34.5494 37.0342 33.9128 36.8416 33.3421C36.6514 32.7714 36.3712 32.2884 36.0007 31.8933C35.6303 31.4982 35.1759 31.1931 34.6376 30.9779C34.1017 30.765 33.4942 30.6586 32.8151 30.6586C32.1236 30.6586 31.5124 30.765 30.9814 30.9779C30.4505 31.1931 29.9998 31.4982 29.6294 31.8933C29.259 32.2884 28.9774 32.7714 28.7848 33.3421C28.5947 33.9128 28.4996 34.5494 28.4996 35.2518V36.6677C28.4996 37.3811 28.5947 38.021 28.7848 38.5873C28.9774 39.1515 29.259 39.6311 29.6294 40.0262C29.9998 40.4214 30.4505 40.7254 30.9814 40.9383C31.5124 41.1534 32.1236 41.261 32.8151 41.261ZM32.8151 41.9031C31.9631 41.9031 31.1914 41.7714 30.4999 41.5079C29.8084 41.2445 29.2219 40.8604 28.7404 40.3555C28.2588 39.8506 27.8884 39.2272 27.6291 38.4853C27.3698 37.7455 27.2401 36.9037 27.2401 35.9598C27.2401 35.0159 27.3698 34.1729 27.6291 33.431C27.8884 32.6912 28.2588 32.0689 28.7404 31.564C29.2219 31.0592 29.8084 30.675 30.4999 30.4116C31.1914 30.1482 31.9631 30.0165 32.8151 30.0165C33.667 30.0165 34.4388 30.1482 35.1302 30.4116C35.8217 30.675 36.4082 31.0592 36.8898 31.564C37.3713 32.0689 37.7417 32.6912 38.001 33.431C38.2603 34.1729 38.39 35.0159 38.39 35.9598C38.39 36.9037 38.2603 37.7455 38.001 38.4853C37.7417 39.2272 37.3713 39.8506 36.8898 40.3555C36.4082 40.8604 35.8217 41.2445 35.1302 41.5079C34.4388 41.7714 33.667 41.9031 32.8151 41.9031ZM46.3356 41.261C47.0148 41.261 47.6223 41.1534 48.1581 40.9383C48.694 40.7254 49.1472 40.4214 49.5176 40.0262C49.888 39.6311 50.1696 39.1515 50.3622 38.5873C50.5548 38.021 50.6511 37.3811 50.6511 36.6677V35.2518C50.6511 34.5494 50.5548 33.9128 50.3622 33.3421C50.1696 32.7714 49.888 32.2884 49.5176 31.8933C49.1472 31.4982 48.694 31.1931 48.1581 30.9779C47.6223 30.765 47.0148 30.6586 46.3356 30.6586C45.6442 30.6586 45.033 30.765 44.502 30.9779C43.9711 31.1931 43.5204 31.4982 43.15 31.8933C42.7795 32.2884 42.498 32.7714 42.3054 33.3421C42.1128 33.9128 42.0165 34.5494 42.0165 35.2518V36.6677C42.0165 37.3811 42.1128 38.021 42.3054 38.5873C42.498 39.1515 42.7795 39.6311 43.15 40.0262C43.5204 40.4214 43.9711 40.7254 44.502 40.9383C45.033 41.1534 45.6442 41.261 46.3356 41.261ZM46.3356 41.9031C45.4837 41.9031 44.7119 41.7714 44.0205 41.5079C43.329 41.2445 42.7425 40.8604 42.2609 40.3555C41.7794 39.8506 41.409 39.2272 41.1497 38.4853C40.8904 37.7455 40.7607 36.9037 40.7607 35.9598C40.7607 35.0159 40.8904 34.1729 41.1497 33.431C41.409 32.6912 41.7794 32.0689 42.2609 31.564C42.7425 31.0592 43.329 30.675 44.0205 30.4116C44.7119 30.1482 45.4837 30.0165 46.3356 30.0165C47.1876 30.0165 47.9593 30.1482 48.6508 30.4116C49.3423 30.675 49.9288 31.0592 50.4103 31.564C50.8919 32.0689 51.2623 32.6912 51.5216 33.431C51.7809 34.1729 51.9106 35.0159 51.9106 35.9598C51.9106 36.9037 51.7809 37.7455 51.5216 38.4853C51.2623 39.2272 50.8919 39.8506 50.4103 40.3555C49.9288 40.8604 49.3423 41.2445 48.6508 41.5079C47.9593 41.7714 47.1876 41.9031 46.3356 41.9031ZM53.9812 41.7055V41.1293H55.4444V30.7903H53.9812V30.214H59.1672C60.9329 30.214 62.3134 30.6915 63.3086 31.6464C64.3013 32.6012 64.7977 34.039 64.7977 35.9598C64.7977 37.8805 64.3013 39.3183 63.3086 40.2732C62.3134 41.2281 60.9329 41.7055 59.1672 41.7055H53.9812ZM56.5742 30.8232V41.0964H59.0746C59.8031 41.0964 60.4452 40.9921 61.0008 40.7836C61.5565 40.575 62.0232 40.2809 62.401 39.9011C62.7764 39.5236 63.0604 39.0681 63.253 38.5347C63.4432 38.0034 63.5383 37.414 63.5383 36.7665V35.1531C63.5383 34.5055 63.4432 33.915 63.253 33.3816C63.0604 32.8504 62.7764 32.3949 62.401 32.0151C62.0232 31.6376 61.5565 31.3445 61.0008 31.136C60.4452 30.9275 59.8031 30.8232 59.0746 30.8232H56.5742Z" fill="#E6DEDE"/>
</g>
</g>
<g clip-path="url(#clip10_133_1401)">
<g clip-path="url(#clip11_133_1401)">
<path d="M16.2 49.4713V48.4991C16.2 47.7285 16.4916 47.246 17.075 47.0515C16.6537 46.4682 16.443 46.0145 16.443 45.6904V45.1503C16.443 44.6677 16.6115 44.2947 16.9486 44.0311C17.284 43.769 17.792 43.6379 18.4726 43.6379C19.777 43.6379 20.4292 44.142 20.4292 45.1503V46.0685H19.5785V45.107C19.5785 44.8478 19.4837 44.6461 19.2941 44.5021C19.1029 44.3581 18.8169 44.286 18.4361 44.286C18.0553 44.286 17.7701 44.3581 17.5805 44.5021C17.3893 44.6461 17.2937 44.8478 17.2937 45.107V45.6904C17.2937 45.9497 17.5165 46.3638 17.9621 46.9327H21.2921V47.5809H20.3077V49.4713C20.3077 50.4796 19.6231 50.9837 18.2538 50.9837C16.8846 50.9837 16.2 50.4796 16.2 49.4713ZM19.457 49.5145V47.5809H17.8892C17.3302 47.5809 17.0507 47.8869 17.0507 48.4991V49.5145C17.0507 49.7738 17.1519 49.9755 17.3545 50.1195C17.557 50.2635 17.8568 50.3356 18.2538 50.3356C18.6508 50.3356 18.9506 50.2635 19.1531 50.1195C19.3557 49.9755 19.457 49.7738 19.457 49.5145ZM39.2834 48.3154V50.8217H38.4327V48.3046L36.4275 43.7999H37.3268L38.8581 47.4188L40.3894 43.7999H41.2887L39.2834 48.3154ZM52.6493 45.1503V49.4713C52.6493 49.9539 52.4776 50.3269 52.1341 50.5905C51.7889 50.8526 51.2744 50.9837 50.5906 50.9837C49.9052 50.9837 49.3883 50.8526 49.0399 50.5905C48.6915 50.3269 48.5173 49.9539 48.5173 49.4713V45.1503C48.5173 44.6677 48.6899 44.2947 49.035 44.0311C49.3786 43.769 49.893 43.6379 50.5785 43.6379C51.2623 43.6379 51.7784 43.769 52.1268 44.0311C52.4752 44.2947 52.6493 44.6677 52.6493 45.1503ZM51.7986 49.4713V45.1503C51.7986 44.5741 51.3935 44.286 50.5833 44.286C49.7731 44.286 49.368 44.5741 49.368 45.1503V49.4713C49.368 50.0475 49.7731 50.3356 50.5833 50.3356C51.3935 50.3356 51.7986 50.0475 51.7986 49.4713ZM63.9492 49.4713V43.7999H64.7999V49.4713C64.7999 49.9539 64.6274 50.3269 64.2822 50.5905C63.9387 50.8526 63.4242 50.9837 62.7388 50.9837C62.055 50.9837 61.5389 50.8526 61.1905 50.5905C60.8421 50.3269 60.6679 49.9539 60.6679 49.4713V43.7999H61.5186V49.4713C61.5186 50.0475 61.9237 50.3356 62.7339 50.3356C63.5441 50.3356 63.9492 50.0475 63.9492 49.4713Z" fill="#D1A37A"/>
</g>
</g>
</g>
</g>
</g>
</g>
</g>
</g>
</g>
</g>
<defs>
<clipPath id="clip0_133_1401">
<rect width="81" height="81" fill="white"/>
</clipPath>
<clipPath id="clip1_133_1401">
<rect width="81" height="81" fill="white"/>
</clipPath>
<clipPath id="clip2_133_1401">
<rect width="81" height="81" fill="white"/>
</clipPath>
<clipPath id="clip3_133_1401">
<rect width="48.6" height="20.967" fill="white" transform="translate(16.2 30.0165)"/>
</clipPath>
<clipPath id="clip4_133_1401">
<rect width="48.6" height="20.967" fill="white" transform="translate(16.2 30.0165)"/>
</clipPath>
<clipPath id="clip5_133_1401">
<rect width="48.6" height="20.967" fill="white" transform="translate(16.2 30.0165)"/>
</clipPath>
<clipPath id="clip6_133_1401">
<rect width="48.6" height="20.967" fill="white" transform="translate(16.2 30.0165)"/>
</clipPath>
<clipPath id="clip7_133_1401">
<rect width="48.6" height="20.967" fill="white" transform="translate(16.2 30.0165)"/>
</clipPath>
<clipPath id="clip8_133_1401">
<rect width="48.6" height="11.8866" fill="white" transform="translate(16.2 30.0165)"/>
</clipPath>
<clipPath id="clip9_133_1401">
<rect width="48.6" height="11.8866" fill="white" transform="translate(16.2 30.0165)"/>
</clipPath>
<clipPath id="clip10_133_1401">
<rect width="48.6" height="7.34591" fill="white" transform="translate(16.2 43.6376)"/>
</clipPath>
<clipPath id="clip11_133_1401">
<rect width="48.6" height="7.34591" fill="white" transform="translate(16.2 43.6376)"/>
</clipPath>
</defs>
</svg>
